<svg width="24" height="25" viewBox="0 0 24 25" fill="none" xmlns="http://www.w3.org/2000/svg">
<g clip-path="url(#clip0_10658_742)">
<path d="M21.7707 9.20265C21.6075 9.14431 21.4584 9.05236 21.333 8.93275C21.2076 8.81314 21.1087 8.66853 21.0427 8.50829C20.9767 8.34804 20.9451 8.17573 20.9499 8.0025C20.9548 7.82927 20.9959 7.65898 21.0707 7.50265C21.3577 6.89871 21.4507 6.22075 21.337 5.56181C21.2234 4.90288 20.9085 4.29528 20.4358 3.82241C19.963 3.34954 19.3555 3.03457 18.6966 2.92074C18.0377 2.80691 17.3597 2.8998 16.7557 3.18665C16.5993 3.26128 16.4291 3.30229 16.2559 3.30703C16.0827 3.31176 15.9104 3.28013 15.7502 3.21417C15.59 3.1482 15.4455 3.04937 15.3258 2.92406C15.2062 2.79875 15.1142 2.64974 15.0557 2.48665C14.8309 1.85773 14.4171 1.31369 13.8711 0.929023C13.3251 0.54436 12.6736 0.337891 12.0057 0.337891C11.3378 0.337891 10.6862 0.54436 10.1402 0.929023C9.59423 1.31369 9.1805 1.85773 8.95568 2.48665C8.89734 2.64983 8.80539 2.79895 8.68578 2.92435C8.56617 3.04975 8.42156 3.14864 8.26132 3.21462C8.10108 3.2806 7.92876 3.31221 7.75553 3.30739C7.5823 3.30257 7.41201 3.26144 7.25568 3.18665C6.65136 2.89752 5.97225 2.8029 5.3119 2.91581C4.65156 3.02871 4.04247 3.3436 3.56854 3.81709C3.09461 4.29058 2.77916 4.89938 2.66564 5.55962C2.55212 6.21986 2.64612 6.89906 2.93468 7.50365C3.00963 7.65996 3.05089 7.83027 3.05579 8.00354C3.06069 8.17682 3.02911 8.34919 2.96311 8.50947C2.89711 8.66976 2.79816 8.81439 2.67267 8.93398C2.54718 9.05356 2.39796 9.14544 2.23468 9.20365C1.60621 9.42892 1.06267 9.84282 0.678401 10.3888C0.29413 10.9347 0.0878906 11.586 0.0878906 12.2537C0.0878906 12.9213 0.29413 13.5726 0.678401 14.1185C1.06267 14.6645 1.60621 15.0784 2.23468 15.3037C2.3983 15.3615 2.54794 15.4531 2.67388 15.5724C2.79983 15.6918 2.89926 15.8364 2.96574 15.9967C3.03222 16.157 3.06425 16.3295 3.05976 16.5029C3.05527 16.6764 3.01436 16.847 2.93968 17.0037C2.65252 17.6072 2.55918 18.2849 2.67247 18.9436C2.78575 19.6023 3.10012 20.2098 3.57241 20.6828C4.04471 21.1558 4.65181 21.471 5.31037 21.5852C5.96894 21.6994 6.64672 21.607 7.25068 21.3207C7.40701 21.2459 7.5773 21.2047 7.75053 21.1999C7.92376 21.1951 8.09608 21.2267 8.25632 21.2927C8.41656 21.3587 8.56117 21.4576 8.68078 21.583C8.80039 21.7084 8.89234 21.8575 8.95068 22.0207C9.1755 22.6496 9.58923 23.1936 10.1352 23.5783C10.6812 23.9629 11.3328 24.1694 12.0007 24.1694C12.6686 24.1694 13.3201 23.9629 13.8661 23.5783C14.4121 23.1936 14.8259 22.6496 15.0507 22.0207C15.109 21.8575 15.201 21.7084 15.3206 21.583C15.4402 21.4576 15.5848 21.3587 15.7451 21.2927C15.9053 21.2267 16.0776 21.1951 16.2508 21.1999C16.4241 21.2047 16.5944 21.2459 16.7507 21.3207C17.3546 21.6076 18.0326 21.7007 18.6915 21.587C19.3505 21.4733 19.9581 21.1585 20.4309 20.6857C20.9038 20.213 21.2188 19.6055 21.3326 18.9466C21.4464 18.2877 21.3535 17.6097 21.0667 17.0057C20.9921 16.8493 20.9511 16.679 20.9463 16.5058C20.9416 16.3327 20.9732 16.1604 21.0392 16.0002C21.1051 15.84 21.204 15.6954 21.3293 15.5758C21.4546 15.4562 21.6036 15.3641 21.7667 15.3057C22.3956 15.0808 22.9397 14.6671 23.3243 14.1211C23.709 13.5751 23.9154 12.9235 23.9154 12.2557C23.9154 11.5878 23.709 10.9362 23.3243 10.3902C22.9397 9.8442 22.3956 9.43046 21.7667 9.20565L21.7707 9.20265Z" fill="url(#paint0_linear_10658_742)"/>
</g>
<path d="M14.4688 16.2539H8.48047V14.9941L10.6309 12.8203C11.0645 12.375 11.4121 12.0039 11.6738 11.707C11.9395 11.4062 12.1309 11.1328 12.248 10.8867C12.3691 10.6406 12.4297 10.377 12.4297 10.0957C12.4297 9.75586 12.334 9.50195 12.1426 9.33398C11.9551 9.16211 11.7031 9.07617 11.3867 9.07617C11.0547 9.07617 10.7324 9.15234 10.4199 9.30469C10.1074 9.45703 9.78125 9.67383 9.44141 9.95508L8.45703 8.78906C8.70312 8.57812 8.96289 8.37891 9.23633 8.19141C9.51367 8.00391 9.83398 7.85352 10.1973 7.74023C10.5645 7.62305 11.0039 7.56445 11.5156 7.56445C12.0781 7.56445 12.5605 7.66602 12.9629 7.86914C13.3691 8.07227 13.6816 8.34961 13.9004 8.70117C14.1191 9.04883 14.2285 9.44336 14.2285 9.88477C14.2285 10.3574 14.1348 10.7891 13.9473 11.1797C13.7598 11.5703 13.4863 11.957 13.127 12.3398C12.7715 12.7227 12.3418 13.1465 11.8379 13.6113L10.7363 14.6484V14.7305H14.4688V16.2539Z" fill="white"/>
<defs>
<linearGradient id="paint0_linear_10658_742" x1="12.0017" y1="0.337891" x2="12.0017" y2="24.1694" gradientUnits="userSpaceOnUse">
<stop stop-color="#BAB7B7"/>
<stop offset="1" stop-color="#726F6F"/>
</linearGradient>
<clipPath id="clip0_10658_742">
<rect width="24" height="24" fill="white" transform="translate(0 0.253906)"/>
</clipPath>
</defs>
</svg>
